<svg width="46" height="358" viewBox="0 0 46 358" fill="none" xmlns="http://www.w3.org/2000/svg">
<path d="M33 187C33 253.826 -20.9667 308 -87.5381 308C-154.109 308 -131.188 253.826 -131.188 187C-131.188 120.174 -154.109 66 -87.5381 66C-20.9667 66 33 120.174 33 187Z" fill="url(#paint0_linear_62_37)"/>
<path d="M44 256C44 312.333 -1.61475 358 -57.8834 358C-114.152 358 -94.7781 312.333 -94.7781 256C-94.7781 199.667 -114.152 154 -57.8834 154C-1.61475 154 44 199.667 44 256Z" fill="url(#paint1_linear_62_37)"/>
<path d="M46 112C46 173.856 -4.11198 224 -65.9282 224C-127.744 224 -106.46 173.856 -106.46 112C-106.46 50.1441 -127.744 0 -65.9282 0C-4.11198 0 46 50.1441 46 112Z" fill="url(#paint2_linear_62_37)"/>
<defs>
<linearGradient id="paint0_linear_62_37" x1="-209.851" y1="209.762" x2="128.03" y2="268.105" gradientUnits="userSpaceOnUse">
<stop stop-color="#1976D2"/>
<stop offset="0.5" stop-color="#FF4D6D"/>
<stop offset="1" stop-color="#FF4D6D"/>
</linearGradient>
<linearGradient id="paint1_linear_62_37" x1="-161.267" y1="275.188" x2="124.279" y2="324.627" gradientUnits="userSpaceOnUse">
<stop stop-color="#1976D2"/>
<stop offset="0.5" stop-color="#FF4D6D"/>
<stop offset="1" stop-color="#FF4D6D"/>
</linearGradient>
<linearGradient id="paint2_linear_62_37" x1="-179.505" y1="133.069" x2="134.184" y2="187.408" gradientUnits="userSpaceOnUse">
<stop stop-color="#1976D2"/>
<stop offset="0.5" stop-color="#FF4D6D"/>
<stop offset="1" stop-color="#FF4D6D"/>
</linearGradient>
</defs>
</svg>
