<svg width="66" height="55" viewBox="0 0 66 55" fill="none" xmlns="http://www.w3.org/2000/svg">
<g clip-path="url(#clip0_47_30)">
<path d="M28.0105 5.75116C29.2339 5.81489 30.4574 5.94234 31.6164 6.00607C38.442 6.45217 44.8812 8.17282 50.7409 11.6779C56.9226 15.3103 61.6876 20.2811 64.3921 26.9726C67.5473 34.6836 66.0662 41.3113 59.8846 46.9831C59.2407 47.5567 58.5324 48.1302 57.8241 48.7038C53.6386 51.8265 48.8091 53.6746 43.6578 54.4393C35.158 55.7139 26.8514 54.8217 18.8024 51.699C13.9086 49.7872 9.72309 46.9831 6.56788 42.7134C1.15893 35.3847 0.515011 27.6098 4.95807 19.5801C6.56788 16.6486 8.69282 14.0358 11.1397 11.7416C11.5905 11.2955 12.1056 10.8494 12.4276 10.0847C11.9768 10.0847 11.5261 10.0209 11.1397 10.1484C8.49964 11.0406 5.79517 11.9328 3.21948 12.9524C1.28772 13.7172 0.579404 13.7809 0.128658 12.8887C-0.257695 11.9965 0.19305 11.2955 1.93164 10.3396C5.15125 8.42773 8.75721 7.47181 12.4276 6.83453C13.5866 6.64335 14.7457 6.45217 15.9047 6.32471C17.7721 6.13353 19.4463 5.6237 21.1849 4.79524C29.2983 0.907836 37.7981 -0.685362 46.7486 0.270557C50.2902 0.652924 53.7029 1.67257 56.7938 3.64814C57.3733 4.0305 58.0172 4.41287 58.3392 4.98642C58.5968 5.43252 58.5324 6.19726 58.2104 6.57962C58.0172 6.83453 57.2445 6.83453 56.7294 6.77081C56.4718 6.77081 56.2786 6.51589 56.0211 6.38844C53.059 4.34914 49.6462 3.45695 46.1691 3.13831C40.3738 2.62849 34.6429 3.26577 29.1051 4.9227C28.7832 4.98642 28.4612 5.17761 28.1393 5.30506C28.1393 5.30506 28.1393 5.43252 28.0105 5.75116ZM37.6693 52.0176C39.0859 51.8902 41.726 51.7627 44.3661 51.2529C50.1614 50.1695 55.3128 47.8116 59.3695 43.3506C62.2027 40.228 63.555 36.5955 62.8466 32.3257C62.0739 27.9285 60.0134 24.1048 57.1157 20.791C52.6727 15.629 46.9418 12.3789 40.3738 10.5308C33.9346 8.68264 27.3666 8.68264 20.7342 8.93756C20.0902 8.93756 19.3819 9.2562 18.8024 9.57484C13.5866 12.8887 9.40113 17.0947 6.76105 22.6391C4.44293 27.5461 4.37854 32.5169 6.76105 37.3602C9.33674 42.5859 13.5222 46.1547 18.8668 48.4489C24.4689 50.8068 30.3286 51.8265 37.6693 52.0176Z" fill="#1976D2"/>
</g>
<defs>
<clipPath id="clip0_47_30">
<rect width="66" height="55" fill="white"/>
</clipPath>
</defs>
</svg>
