<svg width="61" height="68" viewBox="0 0 61 68" fill="none" xmlns="http://www.w3.org/2000/svg">
<g clip-path="url(#clip0_47_15)">
<path d="M34.8485 11.0403C28.5235 7.42263 9.98993 13.6802 4.4985 21.3067C5.18493 21.6001 5.67524 21.8934 6.21458 21.9912C7.19519 22.2845 8.1758 22.48 9.15641 22.8711C9.98994 23.2622 10.3822 24.24 10.1861 25.4133C9.98993 26.8799 9.4506 26.9777 8.8132 26.8799C6.31264 26.391 3.76304 25.8044 1.21345 25.12C0.036715 24.8266 -0.306499 23.1645 0.281868 21.0134C0.527021 20.1334 0.919267 19.3512 1.16442 18.4712C2.92952 12.898 4.6456 7.42263 6.36167 1.94721C6.50876 1.45833 6.60682 0.871679 6.80294 0.676128C7.19519 0.285026 7.73453 -0.20385 8.02871 0.0894758C8.37192 0.382802 8.66611 1.45833 8.66611 2.24053C8.66611 3.12051 8.42095 4.00049 8.22483 4.88047C7.5384 7.32485 6.75391 9.67146 6.06748 12.1158C5.87136 12.8003 5.72427 13.4847 5.47912 14.4625C5.82233 14.3647 5.96942 14.3647 6.06748 14.2669C15.0891 6.93375 24.552 5.07602 34.162 5.85822C35.5839 5.956 37.0058 6.44487 38.3296 7.22708C39.9967 8.30261 41.6637 8.59593 43.3798 8.40038C46.7629 8.10705 50.048 9.08481 53.1859 11.9203C54.951 13.4847 56.569 15.6358 57.9419 18.4712C60.9818 25.0222 61.7663 32.6487 60.2463 41.0573C59.0206 47.7061 56.7161 52.8882 53.8724 56.9947C48.479 64.8168 42.3502 68.0433 35.682 67.4567C35.1917 67.4567 34.7504 67.1634 34.3091 66.9678C33.7208 66.7723 33.3776 66.0878 33.4266 64.8168C33.4756 63.5457 33.9659 63.1546 34.5053 63.1546C34.7994 63.1546 35.1427 63.2523 35.4368 63.2523C40.6341 63.839 45.4881 61.2968 50.048 56.4081C52.5485 53.6704 54.7059 50.0527 56.422 45.4572C57.5006 42.4262 58.3341 39.1996 58.5793 35.4841C58.9715 29.3243 57.8929 24.1422 55.5394 20.2312C52.5976 15.1469 49.0674 13.3869 44.9978 12.9958C45.292 13.8758 45.4881 14.4625 45.6842 14.9513C45.8313 15.3424 46.0275 15.7335 46.2236 16.1246C48.9203 22.2845 49.4596 29.8132 47.5964 37.0486C47.1552 38.7107 46.6649 40.3729 46.0765 41.7418C40.9773 53.377 34.5543 57.3858 27.1016 54.4526C23.7675 53.0837 21.365 49.0749 20.4825 42.1329C19.8941 37.5374 20.4335 33.2353 21.6102 29.2265C22.6889 25.6088 24.1598 22.6756 25.8759 20.1334C28.1803 16.7113 30.7789 14.1691 33.4756 12.1158C33.9169 11.8225 34.3091 11.4314 34.8485 11.0403ZM31.0731 51.3238C34.7014 50.8349 38.4767 48.4883 41.2715 44.5773C43.0366 42.1329 44.5565 39.1018 45.5372 35.1908C46.91 29.5199 46.6158 24.24 44.5075 19.5468C43.625 17.5913 42.4482 16.0269 41.3205 14.5602C40.8302 13.9736 40.0947 13.778 39.5554 13.8758C34.4562 15.538 29.7983 19.1557 25.9249 26.0977C24.8953 27.9555 24.0127 30.3021 23.3753 32.6487C21.6102 39.3952 22.934 46.3372 26.4642 48.9771C27.8861 50.2482 29.5041 50.5416 31.0731 51.3238Z" fill="#1976D2"/>
</g>
<defs>
<clipPath id="clip0_47_15">
<rect width="61" height="67.524" fill="white"/>
</clipPath>
</defs>
</svg>
