<svg width="98" height="98" viewBox="0 0 98 98" fill="none" xmlns="http://www.w3.org/2000/svg">
<g opacity="0.89">
<g opacity="0.89">
<path opacity="0.89" d="M49 97C75.5097 97 97 75.5097 97 49C97 22.4903 75.5097 1 49 1C22.4903 1 1 22.4903 1 49C1 75.5097 22.4903 97 49 97Z" stroke="white" stroke-width="0.8127" stroke-linecap="round" stroke-linejoin="round"/>
</g>
<g opacity="0.89">
<path opacity="0.89" d="M49 93.4994C73.5763 93.4994 93.4994 73.5763 93.4994 49C93.4994 24.4237 73.5763 4.50061 49 4.50061C24.4237 4.50061 4.50061 24.4237 4.50061 49C4.50061 73.5763 24.4237 93.4994 49 93.4994Z" stroke="white" stroke-width="0.9493" stroke-linecap="round" stroke-linejoin="round"/>
</g>
<g opacity="0.89">
<path opacity="0.89" d="M49 89.9988C71.643 89.9988 89.9988 71.643 89.9988 49C89.9988 26.357 71.643 8.00122 49 8.00122C26.357 8.00122 8.00122 26.357 8.00122 49C8.00122 71.643 26.357 89.9988 49 89.9988Z" stroke="white" stroke-width="1.0859" stroke-linecap="round" stroke-linejoin="round"/>
</g>
<g opacity="0.89">
<path opacity="0.89" d="M49 86.4982C69.7096 86.4982 86.4981 69.7097 86.4981 49C86.4981 28.2904 69.7096 11.5019 49 11.5019C28.2903 11.5019 11.5018 28.2904 11.5018 49C11.5018 69.7097 28.2903 86.4982 49 86.4982Z" stroke="white" stroke-width="1.2225" stroke-linecap="round" stroke-linejoin="round"/>
</g>
<g opacity="0.89">
<path opacity="0.89" d="M49 82.9975C67.7763 82.9975 82.9975 67.7763 82.9975 49C82.9975 30.2236 67.7763 15.0024 49 15.0024C30.2237 15.0024 15.0024 30.2236 15.0024 49C15.0024 67.7763 30.2237 82.9975 49 82.9975Z" stroke="white" stroke-width="1.3591" stroke-linecap="round" stroke-linejoin="round"/>
</g>
<g opacity="0.89">
<path opacity="0.89" d="M49 79.4969C65.8429 79.4969 79.4969 65.843 79.4969 49C79.4969 32.157 65.8429 18.5031 49 18.5031C32.157 18.5031 18.5031 32.157 18.5031 49C18.5031 65.843 32.157 79.4969 49 79.4969Z" stroke="white" stroke-width="1.4956" stroke-linecap="round" stroke-linejoin="round"/>
</g>
<g opacity="0.89">
<path opacity="0.89" d="M49.0001 75.9963C63.9097 75.9963 75.9964 63.9097 75.9964 49C75.9964 34.0904 63.9097 22.0037 49.0001 22.0037C34.0904 22.0037 22.0038 34.0904 22.0038 49C22.0038 63.9097 34.0904 75.9963 49.0001 75.9963Z" stroke="white" stroke-width="1.6322" stroke-linecap="round" stroke-linejoin="round"/>
</g>
<g opacity="0.89">
<path opacity="0.89" d="M49 72.4957C61.9763 72.4957 72.4956 61.9763 72.4956 49C72.4956 36.0237 61.9763 25.5043 49 25.5043C36.0236 25.5043 25.5043 36.0237 25.5043 49C25.5043 61.9763 36.0236 72.4957 49 72.4957Z" stroke="white" stroke-width="1.7688" stroke-linecap="round" stroke-linejoin="round"/>
</g>
<g opacity="0.89">
<path opacity="0.89" d="M49 69.001C60.0463 69.001 69.001 60.0463 69.001 49C69.001 37.9538 60.0463 28.999 49 28.999C37.9538 28.999 28.999 37.9538 28.999 49C28.999 60.0463 37.9538 69.001 49 69.001Z" stroke="white" stroke-width="1.9054" stroke-linecap="round" stroke-linejoin="round"/>
</g>
<g opacity="0.89">
<path opacity="0.89" d="M49 65.5004C58.1129 65.5004 65.5004 58.1129 65.5004 49C65.5004 39.8871 58.1129 32.4996 49 32.4996C39.8871 32.4996 32.4996 39.8871 32.4996 49C32.4996 58.1129 39.8871 65.5004 49 65.5004Z" stroke="white" stroke-width="2.042" stroke-linecap="round" stroke-linejoin="round"/>
</g>
<g opacity="0.89">
<path opacity="0.89" d="M49 61.9998C56.1796 61.9998 61.9998 56.1796 61.9998 49C61.9998 41.8204 56.1796 36.0002 49 36.0002C41.8204 36.0002 36.0002 41.8204 36.0002 49C36.0002 56.1796 41.8204 61.9998 49 61.9998Z" stroke="white" stroke-width="2.1786" stroke-linecap="round" stroke-linejoin="round"/>
</g>
<g opacity="0.89">
<path opacity="0.89" d="M49 58.4991C54.2462 58.4991 58.4991 54.2462 58.4991 49C58.4991 43.7537 54.2462 39.5009 49 39.5009C43.7538 39.5009 39.5009 43.7537 39.5009 49C39.5009 54.2462 43.7538 58.4991 49 58.4991Z" stroke="white" stroke-width="2.3152" stroke-linecap="round" stroke-linejoin="round"/>
</g>
</g>
</svg>
