<svg width="490" height="48" viewBox="0 0 490 48" fill="none" xmlns="http://www.w3.org/2000/svg">
<path d="M10.6312 19.5038C14.4676 19.5038 18.4867 19.3006 22.3231 19.0974C23.9673 19.0974 25.4288 18.8943 27.073 18.8943C34.0151 18.4879 40.9571 18.0816 47.8992 17.6753C56.3028 17.2689 64.5237 16.6595 72.9272 16.2531C84.8018 15.4405 96.6764 14.831 108.551 14.0183C111.291 13.8152 114.032 13.8152 116.772 13.612C123.714 13.2057 130.656 12.7993 137.598 12.5962C144.54 12.1898 151.482 11.7835 158.424 11.5804C161.165 11.3772 163.905 11.174 166.645 11.174C177.606 10.7677 188.75 10.3614 199.712 9.95504C206.471 9.75188 213.23 9.54871 220.172 9.14239C222.913 9.14239 225.47 8.93922 228.211 8.93922C238.806 8.73606 249.585 8.53289 260.181 8.32973C270.776 8.12656 281.19 7.9234 291.785 7.72024C294.526 7.72024 297.266 7.72024 300.189 7.72024C307.131 7.72024 313.89 7.72024 320.832 7.72024C331.611 7.72024 342.207 7.72024 352.985 7.51707C356.456 7.51707 359.927 7.51707 363.398 7.51707C370.706 7.51707 378.013 7.51707 385.321 7.51707C385.869 7.51707 386.6 7.51707 387.148 7.51707C370.706 7.72024 354.081 7.9234 337.64 8.32973C330.698 8.53289 323.938 8.53289 316.996 8.73606C314.073 8.73606 310.967 8.73606 308.044 8.93922C297.997 9.14238 288.132 9.54871 278.084 9.75188C266.575 10.1582 255.065 10.3614 243.556 10.7677C241.547 10.7677 239.72 10.9709 237.71 10.9709C231.499 11.3772 225.47 11.5804 219.259 11.9867C206.836 12.5962 194.414 13.2057 181.991 13.8152C180.164 13.8152 178.337 14.0183 176.51 14.2215C170.482 14.6278 164.27 15.2373 158.242 15.6436C147.281 16.4563 136.502 17.2689 125.541 18.0816C122.618 18.2848 119.512 18.6911 116.589 18.8943C109.647 19.5038 102.705 20.1132 95.763 20.9259C86.9941 21.7386 78.0424 22.5512 69.2735 23.3639C57.0335 24.5829 44.6109 25.8018 32.3709 27.0208C29.4479 27.224 26.5249 27.6303 23.4193 27.8335C18.1213 28.443 12.8234 29.0525 7.52554 29.662C6.97749 29.662 6.42943 30.0683 6.42943 30.8809C6.42943 31.4904 6.97749 32.0999 7.52554 32.0999C9.53509 32.0999 11.362 32.3031 13.3715 32.3031C13.0061 33.3189 12.8234 33.9284 12.8234 34.5379C12.8234 36.7727 14.4676 38.8043 16.6599 38.8043C31.8228 37.7885 46.8031 36.5695 61.9661 35.7569C75.1195 35.1474 88.2729 34.3347 101.426 33.7252C115.859 32.9126 130.473 32.0999 144.906 31.4904C149.473 31.2873 154.04 31.0841 158.607 30.6778C159.886 30.6778 161.165 30.4746 162.626 30.4746C186.01 29.8651 209.394 29.0525 232.778 28.443C245.2 28.0366 257.806 27.6303 270.228 27.4272C274.796 27.224 279.18 27.224 283.747 27.0208C307.679 26.6145 331.611 26.2082 355.543 25.8018C365.773 25.5987 376.004 25.3955 386.234 25.1924C395.003 24.9892 403.772 24.9892 412.541 24.5829C419.848 24.3797 426.973 23.9734 434.281 23.7702C437.934 23.567 441.588 23.567 445.059 23.3639C453.28 22.7544 461.501 22.1449 469.722 21.5354C469.174 22.3481 469.174 23.567 469.356 24.3797C469.539 25.3955 470.087 26.2082 471.001 26.6145C471.731 27.0208 472.827 27.4272 473.558 27.0208C475.385 26.2082 477.212 25.3955 478.856 24.5829C478.856 24.5829 478.856 24.5829 478.673 24.5829C478.856 24.5829 478.856 24.3797 479.039 24.3797C479.221 24.3797 479.404 24.1765 479.404 24.1765H479.221C480.135 23.7702 481.048 23.3639 482.144 22.7544C483.058 22.3481 484.154 21.7386 485.067 21.3322C486.164 20.7227 487.077 20.1132 488.173 19.5038C489.269 18.8943 490 17.2689 490 15.8468C490 15.0341 489.817 14.4247 489.452 13.612C489.087 12.7993 488.173 11.7835 487.26 11.5804C486.346 11.3772 485.433 11.174 484.519 11.174C484.337 11.174 484.154 11.174 483.971 11.174C483.423 11.174 482.693 11.174 482.144 11.3772C480.683 11.5804 479.404 11.7835 477.943 11.7835C476.847 11.7835 475.75 11.9867 474.472 11.9867C471.366 12.1898 468.443 12.393 465.337 12.7993C464.607 12.7993 463.693 13.0025 462.962 13.0025C463.328 12.5962 463.51 12.1898 463.51 11.7835C463.693 11.3772 463.693 10.9709 463.693 10.5645C463.693 10.3614 463.693 9.95504 463.876 9.75188C463.876 9.34555 463.876 8.93922 463.693 8.73606C463.693 8.73606 463.876 8.73606 463.876 8.53289C464.424 8.12656 464.972 7.72024 465.337 6.90758C465.703 6.29809 465.885 5.48543 465.885 4.67277C465.885 3.86012 465.703 3.25063 465.337 2.43797C465.155 2.23481 464.972 1.82848 464.789 1.62531C464.241 1.01582 463.693 0.812657 463.145 0.609492C462.049 0.203164 460.77 0 459.491 0C458.395 0 457.482 0 456.386 0C454.924 0 453.463 0 452.001 0C449.992 0 447.799 0 445.79 0C440.309 0 434.829 0 429.348 0C424.233 0 418.935 0 413.82 0C409.07 0 404.503 0 399.753 0C380.936 0 362.302 0.203164 343.486 0.406328C329.419 0.609492 315.352 0.812657 301.285 0.812657C295.074 0.812657 288.68 1.01582 282.468 1.21898C268.402 1.62531 254.335 1.82848 240.268 2.23481C236.249 2.23481 232.23 2.43797 228.211 2.43797C225.836 2.43797 223.643 2.64113 221.268 2.64113C207.384 3.25063 193.5 3.86012 179.616 4.46961C175.414 4.67277 171.212 4.87594 166.828 5.0791C164.453 5.0791 162.078 5.28227 159.703 5.48543C145.819 6.29809 132.118 7.11074 118.233 7.9234C111.109 8.32973 103.984 8.73606 96.8591 9.34555C84.6192 10.1582 72.3792 10.9709 60.3219 11.9867C49.7261 12.7993 39.1303 13.4088 28.5345 14.0183C26.8903 14.2215 25.2461 14.2215 23.4193 14.4247C20.679 14.6278 17.9387 14.6278 15.1984 14.831C12.8234 15.6436 10.2658 15.6436 7.89092 15.6436C7.70823 14.831 6.97749 14.2215 6.42943 14.4247C4.78525 14.4247 3.32376 14.6278 1.67958 14.831C0.948839 15.0341 0.218094 15.4405 0.0354073 16.2531C-0.147279 17.269 0.40078 18.2848 1.13152 18.4879C1.86227 18.6911 2.59301 18.8943 3.32376 19.0974C4.05451 19.3006 4.60256 19.3006 5.33331 19.3006C7.16017 19.5038 8.80435 19.5038 10.6312 19.5038ZM438.117 13.0025C440.309 13.0025 442.684 13.0025 444.876 13.0025C445.059 13.612 445.425 14.0183 445.79 14.4247C444.876 14.4247 443.963 14.6278 443.232 14.6278C441.588 14.6278 439.944 14.831 438.3 14.831C430.992 15.0341 423.868 15.4405 416.56 15.6436C413.272 15.8468 409.983 16.05 406.695 16.05C401.58 16.05 396.282 16.2531 391.167 16.2531C379.292 16.4563 367.6 16.6595 355.726 16.8626C332.707 17.269 309.871 17.6753 286.853 18.0816C270.411 18.2848 253.969 18.8943 237.528 19.5038C212.865 20.3164 188.02 20.9259 163.357 21.7386C158.424 21.9417 153.492 22.1449 148.559 22.5512C134.493 23.3639 120.426 23.9734 106.359 24.786C92.6573 25.5987 78.7732 26.2082 65.0717 27.0208C63.7929 27.0208 62.5141 27.224 61.2353 27.224C64.889 26.8177 68.7254 26.6145 72.3792 26.2082C85.3499 25.1924 98.3206 23.9734 111.291 22.9575C115.859 22.5512 120.426 22.1449 124.81 21.7386C127.185 21.5354 129.56 21.3322 131.752 21.3322C145.454 20.5196 158.972 19.5038 172.491 18.6911C175.049 18.4879 177.789 18.2848 180.347 18.0816C184.183 17.8784 188.02 17.6753 191.673 17.6753C205.557 17.0658 219.442 16.4563 233.326 15.8468C236.431 15.6436 239.537 15.6436 242.46 15.4405C243.191 15.4405 244.104 15.4405 244.835 15.4405C247.027 15.4405 249.219 15.4405 251.229 15.2373C265.113 14.831 279.18 14.6278 293.064 14.2215C299.458 14.0183 305.852 13.8152 312.246 13.8152C332.89 13.612 353.716 13.4088 374.36 13.2057C395.917 13.2057 417.108 13.0025 438.117 13.0025Z" fill="#1976D2"/>
<path d="M38 47.9348C38.5523 47.9348 39 47.4239 39 46.7935C39 46.1632 38.5523 45.6522 38 45.6522C37.4477 45.6522 37 46.1632 37 46.7935C37 47.4239 37.4477 47.9348 38 47.9348Z" fill="#1976D2"/>
</svg>
