<svg width="353" height="353" viewBox="0 0 353 353" fill="none" xmlns="http://www.w3.org/2000/svg">
<rect x="177.037" y="175.133" width="130" height="130" rx="65" transform="rotate(0.102362 177.037 175.133)" fill="#EADEFF"/>
<path d="M234.762 202H247.352V260.279C240.893 261.507 236.151 261.997 231.001 261.997C215.631 261.996 207.619 255.048 207.619 241.721C207.619 228.885 216.122 220.546 229.284 220.546C231.328 220.546 232.881 220.71 234.762 221.2V202ZM234.762 231.335C233.29 230.845 232.064 230.682 230.511 230.682C224.134 230.682 220.454 234.606 220.454 241.473C220.454 248.178 223.97 251.856 230.429 251.856C231.818 251.856 232.963 251.774 234.762 251.53V231.335Z" fill="#092E20"/>
<path d="M267.381 221.443V250.63C267.381 260.687 266.644 265.51 264.437 269.679C262.393 273.686 259.695 276.22 254.136 279L242.445 273.441C248.005 270.824 250.702 268.536 252.419 265.019C254.218 261.422 254.791 257.253 254.791 246.297V221.443H267.381ZM254.79 202.067H267.381V214.985H254.79V202.067Z" fill="#092E20"/>
<rect x="48.649" y="6.66992" width="130" height="130" rx="65" transform="rotate(21.418 48.649 6.66992)" fill="#B0EFE3"/>
<path d="M74.6864 115.427C71.6236 113.063 68.3605 110.801 66.1091 107.595C61.3907 101.947 57.7347 95.3827 55.2183 88.4775C53.6879 83.9852 53.1391 79.1601 51.1792 74.8444C49.1513 71.7154 51.4618 68.2577 54.895 67.2261C56.4231 66.917 59.1118 65.4396 55.8658 66.5125C52.9681 68.6819 52.6491 64.5951 55.6365 64.308C57.6751 64.0156 58.414 62.3411 57.7025 60.8383C55.4969 59.4288 62.9926 57.7838 59.192 55.685C55.2132 51.4746 64.6494 50.5659 62.3665 55.4177C61.8481 59.1315 68.9578 54.6725 67.3381 58.9718C69.0466 61.0113 73.6673 59.3791 73.5724 62.2695C76.0321 62.4187 76.8997 64.4734 79.2011 64.6098C81.6046 65.6652 85.9466 66.4795 86.7842 69.167C84.4302 71.0653 78.8775 65.3604 78.668 70.5663C79.4594 78.2426 79.3475 86.1575 82.2269 93.4474C83.5984 97.8622 86.8512 101.317 89.7947 104.74C92.6153 108.091 96.4039 110.435 100.275 112.403C103.661 113.96 107.308 114.982 110.994 115.609C112.471 114.452 115.068 110.193 117.407 111.954C117.541 113.965 112.832 116.195 117.222 115.938C119.795 115.137 121.61 117.887 123.714 115.366C125.691 117.669 131.836 113.808 130.486 118.558C128.615 119.79 125.862 119.083 123.988 120.776C120.861 119.253 118.417 122.216 114.971 121.882C111.153 122.601 107.268 122.918 103.387 122.955C97.0213 122.512 90.5221 122.365 84.4568 120.208C81.0406 119.249 77.6946 117.34 74.6864 115.427ZM80.0772 117.705C83.4185 119.111 86.6887 120.597 90.3369 121.022C96.1302 121.773 102.122 122.952 107.918 121.769C105.276 120.608 102.575 122.279 99.9468 120.996C96.8124 121.701 93.4336 120.885 90.2385 120.499C86.5937 118.916 82.6661 117.839 79.2467 115.772C74.9844 114.26 81.4648 117.742 82.6103 118.019C85.2767 119.503 79.685 117.271 78.8885 116.653C76.6558 115.423 76.3708 115.692 78.6683 116.935C79.1308 117.197 79.5935 117.48 80.0772 117.705ZM73.703 113.287C76.9413 114.45 73.6671 111.016 72.1956 111.232C71.5309 110.102 69.677 109.401 70.9721 108.778C68.6367 109.612 68.4848 105.711 67.3904 106.274C64.9034 105.514 66.3936 102.726 63.4236 101.05C63.1407 99.2561 60.4595 97.7289 59.5858 95.0274C59.199 93.6438 56.5237 89.6942 58.1758 93.3803C59.5895 96.9321 62.0404 99.9637 64.0889 102.992C65.6832 105.881 67.5661 108.896 70.4294 110.68C71.4013 111.606 72.3419 113.013 73.703 113.287ZM64.3134 103.177C64.4238 102.687 64.9127 104.22 64.3134 103.177V103.177ZM77.576 114.681C76.5444 114.288 78.2917 114.358 77.576 114.681V114.681ZM79.3357 115.304C78.5427 115.808 79.1477 114.422 79.3357 115.304V115.304ZM81.5365 116.196C79.9206 115.586 82.5692 115.195 81.5365 116.196V116.196ZM85.308 118.252C83.2779 117.919 85.9388 117.312 85.308 118.252V118.252ZM78.0517 113.297C75.9601 113.302 79.6589 112.232 78.0517 113.297V113.297ZM79.7053 114.1C79.1183 114.35 79.6498 113.547 79.7053 114.1V114.1ZM87.9687 119.147C89.2991 119.968 95.6979 120.9 91.6806 119.457C91.0135 119.607 84.2381 117.616 87.9687 119.147ZM74.8279 109.115C72.7738 108.523 74.6933 108.563 74.8279 109.115V109.115ZM78.6726 111.307C76.6048 110.795 79.6651 110.607 78.6726 111.307V111.307ZM81.9111 113.253C79.5846 112.736 83.3291 112.7 81.9111 113.253V113.253ZM73.2522 107.434C74.8159 108.605 79.5065 107.525 75.6173 106.7C73.8475 105.775 69.8598 105.173 72.5897 107.296L73.2522 107.434ZM84.0953 113.915C81.3798 113.308 84.7318 112.809 84.0953 113.915V113.915ZM80.7933 111.337C84.5911 112.372 77.5866 108.967 79.8552 110.951L80.3605 111.176L80.7933 111.337ZM87.3983 115.07C84.1522 114.612 90.985 115.072 87.3983 115.07V115.07ZM71.8527 105.37C70.9692 105.435 71.7098 104.702 71.8527 105.37V105.37ZM93.4965 118.419C92.3407 119.329 93.5857 117.211 93.4965 118.419V118.419ZM78.0116 109.063C76.8902 109.045 77.79 108.433 78.0116 109.063V109.063ZM72.1937 104.949C69.3606 104.071 74.2481 104.808 72.1937 104.949V104.949ZM65.2952 100.587C63.036 98.833 65.0271 99.5976 65.2952 100.587V100.587ZM83.3927 111.83C83.0149 111.402 83.2139 111.925 83.3927 111.83V111.83ZM94.6554 118.595C94.0469 118.852 94.6133 117.941 94.6554 118.595V118.595ZM82.3913 110.819C80.6351 110.577 82.5845 109.969 82.3913 110.819V110.819ZM74.0041 105.608C71.5363 104.596 75.5334 105.428 74.0041 105.608V105.608ZM88.1955 114.243C85.8625 113.805 90.5726 113.272 88.1955 114.243V114.243ZM80.8102 109.332C83.5663 109.658 77.5151 107.487 80.2046 109.136L80.8102 109.332ZM90.4321 115.127C92.9905 113.565 92.1911 118.712 94.7988 115.517C97.3826 113.595 92.5714 117.889 95.7579 115.846C98.0646 114.272 101.507 116.525 103.678 117.252C105.229 117.158 106.759 118.567 108.347 117.689C111.408 116.834 102.327 116.517 104.692 115.028C101.889 115.874 99.7952 114.097 98.3983 112.313C95.2363 111.617 91.5771 110.042 89.9767 107.261C89.3271 106.218 90.9053 107.403 89.4084 105.699C87.495 104.028 86.5282 102.118 85.2366 100.075C83.7052 99.2771 83.5029 96.8855 83.3816 100.013C83.3773 98.0439 81.5104 96.7319 81.0629 97.2896C81.0377 95.3922 83.0376 96.3221 81.63 94.9338C81.3095 92.9673 80.3055 90.9283 79.9898 88.7103C79.5197 87.6437 79.8933 85.3473 78.4069 87.7836C77.8849 90.3546 78.1974 84.6374 79.0705 86.5123C80.1735 84.5827 78.652 84.8199 78.5898 85.0865C79.3075 83.4552 79.0126 81.1579 78.3669 82.0409C78.7388 80.3195 78.9252 75.7104 77.7326 76.5411C78.4415 74.7374 79.0348 68.3059 75.9028 70.7866C74.6237 70.8202 72.4214 71.2795 71.377 71.8141C74.6714 73.5871 71.0526 72.4713 69.7131 72.1965C69.5564 73.8727 68.2271 73.1593 66.5742 73.1893C69.2149 73.4878 65.3132 75.8967 63.7952 74.991C61.8348 75.9512 65.5224 78.2595 63.8691 79.0011C64.0806 80.0917 60.8539 78.6343 61.1293 81.1546C59.2171 80.3677 60.8989 84.1469 61.8355 82.8587C65.0852 83.7048 64.1483 85.7191 64.2453 87.6158C63.7239 88.7276 61.6117 85.0387 63.7623 85.1908C62.0401 82.4542 61.8771 84.2168 60.4876 85.5022C60.1651 85.5986 64.0912 87.2866 61.6413 88.1651C63.8078 88.4824 63.8904 90.372 64.3401 91.561C65.6538 92.8999 65.3609 90.0562 66.9287 91.6659C65.9303 90.2234 61.6794 87.6328 65.0869 88.4416C65.0515 86.9828 64.4438 85.8097 65.4934 85.8285C66.5107 83.9501 64.4518 90.453 66.7579 88.052C67.4021 87.7656 67.5452 86.1757 68.7215 88.1844C70.4189 89.8215 69.3594 91.0319 66.9661 89.5379C67.4038 90.9785 70.1613 91.4628 69.6652 93.7244C70.2302 95.7029 70.9923 94.9626 71.6596 94.8412C72.2025 96.7624 72.4838 95.3438 72.5038 94.4235C74.9092 94.9183 74.362 96.3395 75.1189 97.3242C76.779 98.0561 72.7064 92.2868 75.5767 95.5733C78.5921 98.2402 76.7341 99.3862 74.0492 98.9804C75.7441 98.8278 76.3133 101.252 78.4327 101.146C80.3747 102.047 81.7234 105.571 78.3746 104.129C77.2077 103.098 73.0988 101.85 76.4668 103.802C79.5708 105.203 82.0297 106.035 85.0294 107.804C87.1712 109.307 88.1148 111.038 88.9231 111.375C87.1415 112.247 83.519 110.743 86.1954 110.244C84.5179 109.958 82.634 109.127 84.2565 111.197C85.6256 112.319 89.0887 112.171 89.7152 112.288C89.2015 113.45 88.2968 113.552 89.7494 113.624C88.1406 114.516 90.2764 114.633 90.4321 115.127ZM87.0376 105.815C86.0432 104.797 85.7734 102.873 86.853 104.538C87.394 104.748 88.6292 107.669 87.0376 105.815ZM97.8759 112.556C97.8947 113.023 98.4864 112.507 97.8759 112.556V112.556ZM85.4613 103.307C85.4034 101.748 85.8248 104.504 85.4613 103.307V103.307ZM84.3767 101.873C83.1107 99.4984 85.9428 102.541 84.3767 101.873V101.873ZM71.3119 93.0404C71.683 94.2804 72.036 92.8395 71.3119 93.0404V93.0404ZM81.6929 98.5415C82.1226 96.8626 82.2309 99.9452 81.6929 98.5415V98.5415ZM74.3499 93.5363C73.8308 92.614 75.4362 94.3958 74.3499 93.5363V93.5363ZM80.6289 95.4823C79.4325 92.8701 81.449 94.037 80.8917 95.9111L80.6289 95.4823ZM69.7657 88.3901C69.2328 87.5326 68.3464 85.0109 68.6123 84.2393C68.8757 85.4947 71.3371 89.6259 69.8144 85.9458C68.1465 82.8708 71.786 86.9334 72.167 87.6989C72.3468 88.4663 71.1517 87.5001 71.9736 89.2893C70.4881 87.2548 71.1219 90.433 69.7657 88.3901ZM66.409 86.1218C66.5266 84.1153 67.1839 87.4873 66.409 86.1218V86.1218ZM67.9089 86.6251C68.6132 85.1018 69.1434 88.7195 67.9089 86.6251V86.6251ZM64.2745 83.8634C63.0194 82.639 62.1102 81.5119 64.3247 83.0939C65.1731 83.1218 62.4171 80.5243 64.518 82.2582C66.7211 82.6399 65.6374 85.8488 64.2745 83.8634ZM66.1714 83.7952C66.559 84.4959 66.8834 83.0768 66.1714 83.7952V83.7952ZM67.3392 84.1579C66.2274 82.1199 68.677 85.0078 67.3392 84.1579V84.1579ZM65.004 81.9661C61.3657 78.7876 69.5551 83.605 65.599 82.5571L65.004 81.9661ZM75.4032 87.8767C73.8276 86.9572 74.9239 81.2829 75.4925 85.1517C77.0043 84.6486 75.4251 87.1506 76.5605 87.1183C76.4028 88.6867 75.8979 89.2593 75.4032 87.8767ZM79.2554 90.1045C79.3902 88.3925 79.5899 91.2657 79.2554 90.1045V90.1045ZM78.5808 89.4496C78.6105 90.3118 78.7464 88.722 78.5808 89.4496V89.4496ZM65.6984 80.903C63.3467 77.7266 72.4706 84.0806 67.1938 81.701C66.639 81.5553 65.9773 81.5113 65.6984 80.903ZM73.1094 84.7358C72.861 82.0427 73.6023 85.1768 73.1094 84.7358V84.7358ZM78.735 88.2765C78.7805 89.2895 79.1517 86.7344 78.735 88.2765V88.2765ZM66.0462 79.6777C67.4233 79.37 71.7829 82.0457 67.7856 80.4376C67.3353 79.9459 66.3959 80.1776 66.0462 79.6777ZM77.9393 85.4664C78.0569 82.7052 78.7502 83.8127 77.9502 85.8616L77.9393 85.4664ZM67.0576 78.705C67.6104 77.8732 65.5275 74.9962 67.3425 77.6601C68.1244 78.2636 69.5874 78.6667 68.2961 78.9377C70.3543 80.7151 67.812 79.431 67.0576 78.705ZM77.349 84.6094C77.7042 86.4462 77.7074 81.465 77.349 84.6094V84.6094ZM65.8587 75.8196C66.0941 76.3853 66.2882 75.6287 65.8587 75.8196V75.8196ZM68.5402 77.3828C69.2165 75.9316 69.8275 78.9735 68.5402 77.3828V77.3828ZM76.1048 81.4945C76.0995 80.9411 76.2561 82.2981 76.1048 81.4945V81.4945ZM75.6644 80.5355C74.5979 77.9652 76.6476 81.8919 75.6644 80.5355V80.5355ZM75.0088 78.8526C74.819 77.7906 75.618 80.1838 75.0088 78.8526V78.8526ZM76.0349 77.1465C75.3042 75.8884 76.8877 71.5679 77.0927 74.2398C76.3577 76.3241 76.9078 77.4833 77.406 74.6897C78.3627 72.4812 77.2386 79.0184 76.0349 77.1465ZM77.0452 70.7326C77.1214 71.1991 77.3578 70.3487 77.0452 70.7326V70.7326ZM75.5896 106.053C75.162 105.683 75.6422 106.29 75.5896 106.053V106.053ZM79.2943 107.887C81.3549 108.399 81.3325 107.551 79.4758 107.317C78.468 106.4 75.3107 105.445 78.1451 107.215C78.3436 107.68 78.9328 107.66 79.2943 107.887ZM71.9607 103.112C73.0971 103.949 76.2452 105.457 73.5737 103.42C74.4551 102.376 71.8481 101.848 72.7039 101.142C70.492 99.8191 70.9603 99.9368 72.4987 99.9654C69.8499 98.8117 72.8693 98.8693 72.7199 98.267C71.6974 98.0754 67.6503 96.518 70.0403 98.4217C67.6138 97.2156 69.4696 98.8871 68.7349 98.7144C66.2561 98.0622 70.952 100.577 68.3585 99.9614C69.785 101.069 72.1949 102.8 68.9663 101.142C68.5624 101.756 71.2879 102.658 71.9607 103.112ZM75.8412 105.296C73.5238 103.463 80.5487 106.761 75.8412 105.296V105.296ZM95.7192 117.076C95.0799 117.88 95.7678 116.141 95.7192 117.076V117.076ZM97.7541 117.912C98.8294 116.852 97.813 119.586 99.5484 117.636C99.5569 116.256 99.4773 115.437 97.5311 117.138C96.9949 117.445 96.7626 118.719 97.7541 117.912ZM65.328 97.9703C62.9798 96.6916 64.9778 96.6655 65.328 97.9703V97.9703ZM67.5048 99.3729C64.6185 98.1927 66.6872 98.0437 67.5048 99.3729V99.3729ZM79.9156 106.695C81.1331 107.754 85.4571 107.426 81.3758 106.81C80.7708 105.925 77.5458 106.171 79.9156 106.695ZM96.9764 117.006C95.1862 117.72 98.8088 115.436 96.9764 117.006V117.006ZM100.854 119.622C100.058 119.845 100.863 119.126 100.854 119.622V119.622ZM100.854 118.925C98.8648 119.073 102.889 116.727 100.854 118.925V118.925ZM59.9457 93.5576C58.1756 91.0802 58.8262 89.9528 57.1179 87.9276C56.7797 86.371 54.1732 82.8593 55.7755 86.589C57.2265 88.7675 57.6826 92.1559 59.9457 93.5576ZM100.201 118.241C98.6457 117.192 103.958 115.761 100.201 118.241V118.241ZM103.094 119.342C101.897 119.015 104.976 117.7 103.094 119.342V119.342ZM64.655 95.2166C63.2598 95.1292 65.1936 94.4065 64.655 95.2166V95.2166ZM102.49 118.571C104.311 117.375 102.056 117.576 102.16 118.682L102.49 118.571ZM77.4884 103.146C76.5188 103.219 77.4162 102.348 77.4884 103.146V103.146ZM79.0349 104.015C78.2816 104.173 78.5296 103.028 79.0349 104.015V104.015ZM105.437 119.341C107.771 117.623 104.011 119.031 104.951 119.669L105.437 119.341ZM104.527 118.919C102.522 119.649 106.431 117.298 104.527 118.919V118.919ZM109.149 121.93C107.587 121.671 110.427 121.062 109.149 121.93V121.93ZM65.8282 94.6233C67.5496 94.9951 72.7392 98.7915 69.6615 94.8529C68.0975 94.4077 68.9958 90.5897 67.4138 91.2803C68.4944 93.0527 68.3147 93.8091 66.0617 92.7091C63.2385 91.3629 64.4869 93.3997 65.0457 93.9622C64.2999 94.149 66.0509 94.6068 65.8282 94.6233ZM57.9356 88.5092C58.2326 87.2342 55.0304 81.5286 56.4207 85.6485C56.9176 86.5135 56.8828 88.1526 57.9356 88.5092ZM72.4011 97.2421C71.5101 96.5102 72.3569 97.1347 72.4011 97.2421V97.2421ZM74.5836 97.7318C72.1707 97.2012 74.5709 96.3806 74.5836 97.7318V97.7318ZM93.5986 109.462C92.1754 109.461 93.2305 108.546 93.5986 109.462V109.462ZM94.5105 110.122C93.994 110.227 94.3762 109.606 94.5105 110.122V110.122ZM102.051 114.766C101.152 114.71 102.765 114.227 102.051 114.766V114.766ZM61.8549 89.4713C59.6431 88.9244 63.9101 88.654 61.8549 89.4713V89.4713ZM91.9246 108.019C90.6124 108.362 91.8832 106.682 91.9246 108.019V108.019ZM61.0248 87.5815C59.793 87.2985 62.343 87.1234 61.0248 87.5815V87.5815ZM64.8804 89.4067C64.4794 89.5758 64.8547 88.9685 64.8804 89.4067V89.4067ZM112.027 117.705C113.727 117.344 117.62 118.522 118.233 117.193C116.162 117.163 111.067 115.802 110.847 117.594L111.301 117.661L112.027 117.705ZM66.1051 89.7042C65.0553 89.6638 66.1283 88.3527 66.1051 89.7042V89.7042ZM55.9408 82.7922C54.1907 82.4207 55.4565 80.2236 55.9408 82.7922V82.7922ZM58.3542 83.3732C56.1408 82.6538 58.3752 82.5464 58.3542 83.3732V83.3732ZM59.7334 84.0358C59.3351 83.7233 59.4282 84.4484 59.7334 84.0358V84.0358ZM68.4537 89.5095C67.4808 89.2455 68.8598 89.1318 68.4537 89.5095V89.5095ZM58.8062 82.5207C56.0148 82.2596 58.5506 80.5753 58.8062 82.5207V82.5207ZM53.8383 79.362C53.3599 79.7043 53.7579 78.4643 53.8383 79.362V79.362ZM54.5661 78.8016C53.9349 78.9442 54.4339 77.7391 54.5661 78.8016V78.8016ZM58.6498 81.1853C60.3611 80.4934 55.5102 79.8206 58.2964 81.0592L58.6498 81.1853ZM113.295 114.228C111.898 113.932 114.385 113.212 113.295 114.228V114.228ZM119.889 117.573C118.784 117.749 120.316 116.268 119.889 117.573V117.573ZM59.0393 79.054C57.6833 79.3184 59.2143 77.7945 59.0393 79.054V79.054ZM53.2314 75.2419C52.9056 73.4696 52.9191 70.3428 55.8974 71.3712C51.9448 72.1993 58.6895 76.2684 57.8106 73.0135C59.4787 73.0768 61.057 71.998 60.2027 73.6234C63.4838 73.2329 65.728 70.3653 68.9013 70.7306C71.3706 70.3766 74.0635 70.1068 76.7133 69.0898C78.8968 68.911 80.9803 66.5337 79.774 65.1506C76.789 64.9273 73.6661 65.3306 70.3805 66.0158C66.7367 66.8122 63.4298 68.281 59.7487 68.9412C56.1596 69.4568 60.48 70.264 59.454 70.4606C57.5842 71.1252 61.6995 71.5319 59.2264 72.2382C57.6928 71.958 56.0922 71.4484 56.731 69.8323C53.2926 70.3105 50.2803 71.7694 53.0374 75.2437L53.2314 75.2419ZM61.4855 70.9374C62.2623 67.9543 65.8281 73.3401 62.8116 71.3202C62.4497 71.0504 61.8583 70.8404 61.4855 70.9374ZM61.6299 69.4913C62.2526 69.9741 62.7861 68.6178 61.6299 69.4913V69.4913ZM63.1107 69.506C63.2056 68.1394 66.5028 70.1999 63.6544 69.9896L63.1107 69.506ZM65.1226 68.6675C65.3455 69.4345 65.8547 67.7981 65.1226 68.6675V68.6675ZM65.6368 68.3177C66.8518 66.8255 72.5923 67.3102 68.4025 68.1477C67.2733 67.3103 66.4236 68.6696 65.6368 68.3177ZM73.115 67.0969C72.8899 63.0594 76.8514 68.4919 73.115 67.0969V67.0969ZM75.2422 67.0623C75.9992 65.021 78.2531 66.2144 75.5977 66.6493C75.6572 66.8643 75.5286 67.6994 75.2422 67.0623ZM58.1958 78.0198C55.7189 76.8069 60.5038 76.5747 58.1958 78.0198V78.0198ZM59.918 78.4779C58.1466 78.1424 60.722 77.6077 59.918 78.4779V78.4779ZM54.8243 74.9393C53.2538 74.566 56.1442 73.9062 54.8243 74.9393V74.9393ZM123.76 117.163C122.751 117.704 123.785 115.976 123.76 117.163V117.163ZM116.751 112.478C115.86 112.601 116.939 111.11 116.751 112.478V112.478ZM125.683 117.604C127.538 117.594 131.298 116.976 127.259 117.014C126.627 117.114 123.573 117.128 125.683 117.604ZM61.4194 77.6299C62.9206 77.515 63.754 75.9546 61.1099 76.0658C57.0164 75.6805 64.7311 77.4332 60.5935 76.9476C60.0436 77.3194 61.3844 77.7308 61.4194 77.6299ZM62.7482 78.2858C62.2858 78.8005 62.5809 77.3242 62.7482 78.2858V78.2858ZM64.2754 74.088C63.3678 73.8809 64.9146 73.2769 64.2754 74.088V74.088ZM59.2014 65.7981C61.8736 64.86 65.5222 63.8048 66.8097 66.1718C65.5085 64.6387 66.2631 63.1006 67.4992 65.3602C69.2386 67.6367 70.0695 64.2937 68.9411 63.5352C70.2282 65.1044 71.687 65.8381 69.7973 63.6278C71.8081 61.1649 65.7324 63.9897 64.345 63.9741C63.6866 64.275 57.4747 65.6204 59.2014 65.7981ZM60.747 62.779C62.267 61.6146 66.0361 63.419 63.611 61.609C63.3718 61.3957 58.3416 63.0461 60.747 62.779ZM66.3192 62.9563C68.1092 62.9825 65.5275 60.563 67.6654 61.6497C67.3024 60.5103 65.1729 60.3148 64.1265 59.8719C63.547 60.9196 65.3491 62.9798 66.3192 62.9563ZM61.6787 57.94C60.5976 58.3815 62.2889 57.1004 61.6787 57.94V57.94ZM63.9551 58.4647C66.8335 58.0565 63.2103 57.2354 63.3726 58.4415L63.9551 58.4647ZM59.676 55.1844C57.6241 52.5515 63.4966 55.5939 61.4076 52.8392C59.6625 51.4756 58.0228 54.4238 59.676 55.1844ZM85.8334 68.9532C86.745 67.2985 81.9744 66.7686 85.2026 68.3769C85.5054 68.4747 85.4392 69.0719 85.8334 68.9532Z" fill="#010101"/>
<rect x="201.529" y="1.39746" width="130" height="130" rx="65" transform="rotate(21.418 201.529 1.39746)" fill="#E6E8EA"/>
<path d="M227.522 41.5737L237.953 41.475L238.158 63.1353L227.727 63.234L227.522 41.5737ZM227.943 86.0667L238.374 85.968L238.579 107.627L228.148 107.726L227.943 86.0667Z" fill="#130754"/>
<path d="M227.786 69.5557L238.218 69.457L238.314 79.6761L227.883 79.7748L227.786 69.5557Z" fill="#FFCA00"/>
<path d="M210.932 59.5386L221.364 59.4399L222.045 131.438L211.614 131.537L210.932 59.5386ZM244.523 103.782L254.955 103.684L255.16 125.343L244.728 125.442L244.523 103.782ZM244.102 59.2503L254.533 59.1516L254.738 80.8118L244.307 80.9105L244.102 59.2503Z" fill="#130754"/>
<path d="M244.367 87.2368L254.798 87.1381L254.895 97.3573L244.464 97.456L244.367 87.2368Z" fill="#E70488"/>
<path d="M260.287 35.6211L270.718 35.5224L271.399 107.52L260.968 107.619L260.287 35.6211Z" fill="#130754"/>
<rect x="23.7496" y="174.297" width="130" height="130" rx="65" transform="rotate(-0.260159 23.7496 174.297)" fill="#FEDF93"/>
<g clip-path="url(#clip0_112_258)">
<path d="M89.0053 248.52C93.7271 248.475 97.5187 244.611 97.474 239.889C97.4293 235.167 93.5653 231.376 88.8435 231.421C84.1217 231.465 80.3301 235.329 80.3748 240.051C80.4195 244.773 84.2835 248.564 89.0053 248.52Z" fill="#61DAFB"/>
<path d="M121.264 225.563C119.609 224.979 117.878 224.395 116.073 223.887C116.506 222.083 116.864 220.28 117.148 218.552C118.629 208.638 116.838 201.679 112.013 199.025C110.58 198.213 109.002 197.853 107.202 197.87C101.952 197.92 95.3141 201.883 88.6262 208.471C81.8148 202.011 75.1032 198.174 69.8534 198.224C68.0535 198.241 66.4821 198.631 65.065 199.469C60.2914 202.289 58.6325 209.28 60.3004 219.09C60.6167 220.812 61.0087 222.608 61.4757 224.404C59.6808 224.946 57.9608 225.487 56.3173 226.178C46.9768 229.867 41.9238 234.865 41.9763 240.414C42.0289 245.964 47.2505 250.865 56.5841 254.377C58.2397 254.961 59.9703 255.545 61.7752 256.053C61.3423 257.857 60.9843 259.66 60.7006 261.388C59.2194 271.303 61.0103 278.261 65.8356 280.916C67.2684 281.727 68.8469 282.087 70.6468 282.07C75.9715 282.02 82.6093 278.057 89.2223 271.469C96.0337 277.93 102.745 281.766 107.995 281.717C109.795 281.7 111.366 281.31 112.784 280.471C117.557 277.651 119.216 270.66 117.548 260.85C117.232 259.128 116.84 257.332 116.373 255.536C118.168 254.994 119.888 254.453 121.531 253.762C130.872 250.074 135.925 245.076 135.872 239.526C135.82 233.976 130.673 229.075 121.264 225.563ZM109.948 202.794C113.04 204.565 114.143 210.105 112.942 217.992C112.732 219.569 112.373 221.222 111.939 222.952C108.031 222.088 103.9 221.528 99.5471 221.194C96.9631 217.618 94.3077 214.418 91.6551 211.518C97.1531 205.991 102.742 202.188 107.317 202.144C108.292 202.135 109.194 202.352 109.948 202.794ZM101.97 247.347C100.642 249.76 99.0902 252.174 97.463 254.59C94.6902 254.841 91.916 254.942 89.0662 254.969C86.1413 254.997 83.3657 254.948 80.6637 254.749C78.9911 252.365 77.4684 249.979 76.0958 247.592C74.6474 245.13 73.2734 242.593 72.05 240.13C73.2265 237.644 74.5523 235.081 75.9539 232.592C77.2811 230.18 78.8333 227.765 80.4605 225.35C83.2333 225.098 86.0074 224.997 88.8573 224.97C91.7822 224.942 94.5578 224.991 97.2598 225.191C98.9324 227.575 100.455 229.961 101.828 232.348C103.276 234.809 104.65 237.346 105.873 239.81C104.622 242.297 103.37 244.784 101.97 247.347ZM108.171 244.813C109.321 247.427 110.245 249.969 111.094 252.511C108.55 253.135 105.854 253.611 103.008 254.012C103.894 252.579 104.855 251.07 105.665 249.487C106.55 247.904 107.36 246.321 108.171 244.813ZM89.1641 265.319C87.3457 263.386 85.6009 261.302 83.9304 259.143C85.6561 259.202 87.3817 259.261 89.1066 259.244C90.8316 259.228 92.5558 259.137 94.28 259.045C92.6506 261.236 90.9456 263.352 89.1641 265.319ZM75.1083 254.201C72.2549 253.853 69.5507 253.429 66.9952 252.853C67.7967 250.37 68.6718 247.737 69.7719 245.102C70.6111 246.594 71.451 248.161 72.3651 249.652C73.2807 251.294 74.1941 252.71 75.1083 254.201ZM69.6776 235.127C68.5278 232.513 67.6037 229.971 66.7546 227.429C69.2988 226.805 71.9944 226.33 74.8407 225.928C73.9543 227.361 72.9935 228.87 72.1834 230.453C71.2984 232.037 70.4883 233.619 69.6776 235.127ZM88.6844 214.621C90.5028 216.554 92.2475 218.638 93.9181 220.797C92.1924 220.738 90.4668 220.68 88.7419 220.696C87.0169 220.712 85.2927 220.804 83.5685 220.895C85.1979 218.704 86.9029 216.588 88.6844 214.621ZM105.483 230.213L102.74 225.739C105.594 226.087 108.298 226.511 110.853 227.087C110.052 229.57 109.177 232.203 108.077 234.839C107.237 233.272 106.397 231.704 105.483 230.213ZM64.4945 218.45C63.1451 210.588 64.1425 205.028 67.2003 203.199C67.9461 202.742 68.8439 202.508 69.8188 202.499C74.3186 202.457 79.9782 206.078 85.6554 211.575C83.0575 214.449 80.4638 217.774 77.948 221.398C73.6018 221.814 69.4833 222.528 65.5913 223.39C65.125 221.669 64.8094 220.022 64.4945 218.45ZM46.1762 240.375C46.1428 236.85 50.3821 233.059 57.8555 230.214C59.3498 229.599 60.9948 229.059 62.6404 228.593C63.8758 232.332 65.4134 236.292 67.2509 240.25C65.4886 244.242 63.9506 248.157 62.8611 251.917C52.4832 249.015 46.2159 244.574 46.1762 240.375ZM67.9001 277.146C64.8082 275.375 63.7057 269.835 64.9061 261.948C65.1162 260.371 65.4756 258.718 65.9092 256.989C69.8176 257.852 73.9481 258.413 78.3014 258.746C80.8854 262.322 83.5408 265.522 86.1933 268.423C80.6954 273.95 75.1061 277.753 70.5313 277.796C69.5564 277.805 68.6543 277.589 67.9001 277.146ZM113.354 261.49C114.703 269.353 113.706 274.912 110.648 276.741C109.902 277.199 109.005 277.432 108.03 277.441C103.53 277.484 97.8703 273.862 92.1931 268.366C94.791 265.491 97.3846 262.166 99.9005 258.542C104.247 258.126 108.365 257.412 112.257 256.55C112.723 258.271 113.039 259.918 113.354 261.49ZM119.993 249.727C118.499 250.341 116.854 250.881 115.208 251.347C113.973 247.608 112.435 243.648 110.598 239.69C112.36 235.698 113.898 231.783 114.987 228.023C125.365 230.925 131.633 235.366 131.672 239.566C131.706 243.09 127.391 246.881 119.993 249.727Z" fill="#61DAFB"/>
</g>
<defs>
<clipPath id="clip0_112_258">
<rect width="96" height="96" fill="white" transform="translate(40.4723 192.427) rotate(-0.542142)"/>
</clipPath>
</defs>
</svg>
